<svg xmlns="http://www.w3.org/2000/svg" viewBox="0 0 500 500" width="500" height="500">
  <defs>
    <style>
      .bg { fill: #e8e9eb; }
      .outer-ring { fill: none; stroke: #8a8a8a; stroke-width: 3; opacity: 0.7; }
      .inner-ring { fill: none; stroke: #8a8a8a; stroke-width: 2; opacity: 0.6; }
      .circle-fill { fill: #2d5f8a; }
      .circle-border { fill: none; stroke: #7a8fa0; stroke-width: 4; opacity: 0.8; }
      .compass-line { stroke: #6a7a8a; stroke-width: 1.5; opacity: 0.5; }
      .compass-line-dark { stroke: #5a6a7a; stroke-width: 2; opacity: 0.6; }
      .spoke { stroke: #7a8a9a; stroke-width: 2.5; opacity: 0.75; }
      .spoke-thin { stroke: #8a9aaa; stroke-width: 1.5; opacity: 0.6; }
      .text-main { font-family: 'Garamond', 'Times New Roman', serif; font-size: 82px; font-weight: bold; fill: #f0f0f0; letter-spacing: 3px; }
      .text-est { font-family: 'Garamond', 'Times New Roman', serif; font-size: 22px; fill: #d0d8e0; letter-spacing: 4px; }
      .star { fill: #d0d8e0; }
      .tick { stroke: #8a9aaa; stroke-width: 1.5; opacity: 0.6; }
    </style>
    <filter id="distress" x="-5%" y="-5%" width="110%" height="110%">
      <feTurbulence type="fractalNoise" baseFrequency="0.65" numOctaves="3" stitchTiles="stitch"/>
      <feColorMatrix type="saturate" values="0"/>
      <feBlend in="SourceGraphic" mode="multiply" result="blend"/>
      <feComposite in="blend" in2="SourceGraphic" operator="in"/>
    </filter>
  </defs>

  <!-- Background -->
  <rect class="bg" width="500" height="500"/>

  <!-- Outer diagonal spokes (8 directions) -->
  <!-- Cardinal spokes (longer) -->
  <line class="spoke" x1="250" y1="80" x2="250" y2="30"/>
  <line class="spoke" x1="250" y1="420" x2="250" y2="470"/>
  <line class="spoke" x1="80" y1="250" x2="30" y2="250"/>
  <line class="spoke" x1="420" y1="250" x2="470" y2="250"/>

  <!-- Diagonal spokes (shorter) -->
  <line class="spoke-thin" x1="153" y1="153" x2="113" y2="113"/>
  <line class="spoke-thin" x1="347" y1="153" x2="387" y2="113"/>
  <line class="spoke-thin" x1="153" y1="347" x2="113" y2="387"/>
  <line class="spoke-thin" x1="347" y1="347" x2="387" y2="387"/>

  <!-- Outer decorative ring -->
  <circle class="outer-ring" cx="250" cy="250" r="195"/>
  <!-- Second outer ring -->
  <circle class="outer-ring" cx="250" cy="250" r="188" style="opacity:0.4;stroke-width:1"/>

  <!-- Tick marks around outer ring -->
  <g id="ticks">
    <!-- 72 tick marks every 5 degrees -->
    <line class="tick" x1="250" y1="58" x2="250" y2="50" transform="rotate(0,250,250)"/>
    <line class="tick" x1="250" y1="58" x2="250" y2="50" transform="rotate(5,250,250)"/>
    <line class="tick" x1="250" y1="58" x2="250" y2="50" transform="rotate(10,250,250)"/>
    <line class="tick" x1="250" y1="58" x2="250" y2="50" transform="rotate(15,250,250)"/>
    <line class="tick" x1="250" y1="58" x2="250" y2="50" transform="rotate(20,250,250)"/>
    <line class="tick" x1="250" y1="58" x2="250" y2="50" transform="rotate(25,250,250)"/>
    <line class="tick" x1="250" y1="58" x2="250" y2="50" transform="rotate(30,250,250)"/>
    <line class="tick" x1="250" y1="58" x2="250" y2="50" transform="rotate(35,250,250)"/>
    <line class="tick" x1="250" y1="58" x2="250" y2="50" transform="rotate(40,250,250)"/>
    <line class="tick" x1="250" y1="58" x2="250" y2="50" transform="rotate(45,250,250)"/>
    <line class="tick" x1="250" y1="58" x2="250" y2="50" transform="rotate(50,250,250)"/>
    <line class="tick" x1="250" y1="58" x2="250" y2="50" transform="rotate(55,250,250)"/>
    <line class="tick" x1="250" y1="58" x2="250" y2="50" transform="rotate(60,250,250)"/>
    <line class="tick" x1="250" y1="58" x2="250" y2="50" transform="rotate(65,250,250)"/>
    <line class="tick" x1="250" y1="58" x2="250" y2="50" transform="rotate(70,250,250)"/>
    <line class="tick" x1="250" y1="58" x2="250" y2="50" transform="rotate(75,250,250)"/>
    <line class="tick" x1="250" y1="58" x2="250" y2="50" transform="rotate(80,250,250)"/>
    <line class="tick" x1="250" y1="58" x2="250" y2="50" transform="rotate(85,250,250)"/>
    <line class="tick" x1="250" y1="58" x2="250" y2="50" transform="rotate(90,250,250)"/>
    <line class="tick" x1="250" y1="58" x2="250" y2="50" transform="rotate(95,250,250)"/>
    <line class="tick" x1="250" y1="58" x2="250" y2="50" transform="rotate(100,250,250)"/>
    <line class="tick" x1="250" y1="58" x2="250" y2="50" transform="rotate(105,250,250)"/>
    <line class="tick" x1="250" y1="58" x2="250" y2="50" transform="rotate(110,250,250)"/>
    <line class="tick" x1="250" y1="58" x2="250" y2="50" transform="rotate(115,250,250)"/>
    <line class="tick" x1="250" y1="58" x2="250" y2="50" transform="rotate(120,250,250)"/>
    <line class="tick" x1="250" y1="58" x2="250" y2="50" transform="rotate(125,250,250)"/>
    <line class="tick" x1="250" y1="58" x2="250" y2="50" transform="rotate(130,250,250)"/>
    <line class="tick" x1="250" y1="58" x2="250" y2="50" transform="rotate(135,250,250)"/>
    <line class="tick" x1="250" y1="58" x2="250" y2="50" transform="rotate(140,250,250)"/>
    <line class="tick" x1="250" y1="58" x2="250" y2="50" transform="rotate(145,250,250)"/>
    <line class="tick" x1="250" y1="58" x2="250" y2="50" transform="rotate(150,250,250)"/>
    <line class="tick" x1="250" y1="58" x2="250" y2="50" transform="rotate(155,250,250)"/>
    <line class="tick" x1="250" y1="58" x2="250" y2="50" transform="rotate(160,250,250)"/>
    <line class="tick" x1="250" y1="58" x2="250" y2="50" transform="rotate(165,250,250)"/>
    <line class="tick" x1="250" y1="58" x2="250" y2="50" transform="rotate(170,250,250)"/>
    <line class="tick" x1="250" y1="58" x2="250" y2="50" transform="rotate(175,250,250)"/>
    <line class="tick" x1="250" y1="58" x2="250" y2="50" transform="rotate(180,250,250)"/>
    <line class="tick" x1="250" y1="58" x2="250" y2="50" transform="rotate(185,250,250)"/>
    <line class="tick" x1="250" y1="58" x2="250" y2="50" transform="rotate(190,250,250)"/>
    <line class="tick" x1="250" y1="58" x2="250" y2="50" transform="rotate(195,250,250)"/>
    <line class="tick" x1="250" y1="58" x2="250" y2="50" transform="rotate(200,250,250)"/>
    <line class="tick" x1="250" y1="58" x2="250" y2="50" transform="rotate(205,250,250)"/>
    <line class="tick" x1="250" y1="58" x2="250" y2="50" transform="rotate(210,250,250)"/>
    <line class="tick" x1="250" y1="58" x2="250" y2="50" transform="rotate(215,250,250)"/>
    <line class="tick" x1="250" y1="58" x2="250" y2="50" transform="rotate(220,250,250)"/>
    <line class="tick" x1="250" y1="58" x2="250" y2="50" transform="rotate(225,250,250)"/>
    <line class="tick" x1="250" y1="58" x2="250" y2="50" transform="rotate(230,250,250)"/>
    <line class="tick" x1="250" y1="58" x2="250" y2="50" transform="rotate(235,250,250)"/>
    <line class="tick" x1="250" y1="58" x2="250" y2="50" transform="rotate(240,250,250)"/>
    <line class="tick" x1="250" y1="58" x2="250" y2="50" transform="rotate(245,250,250)"/>
    <line class="tick" x1="250" y1="58" x2="250" y2="50" transform="rotate(250,250,250)"/>
    <line class="tick" x1="250" y1="58" x2="250" y2="50" transform="rotate(255,250,250)"/>
    <line class="tick" x1="250" y1="58" x2="250" y2="50" transform="rotate(260,250,250)"/>
    <line class="tick" x1="250" y1="58" x2="250" y2="50" transform="rotate(265,250,250)"/>
    <line class="tick" x1="250" y1="58" x2="250" y2="50" transform="rotate(270,250,250)"/>
    <line class="tick" x1="250" y1="58" x2="250" y2="50" transform="rotate(275,250,250)"/>
    <line class="tick" x1="250" y1="58" x2="250" y2="50" transform="rotate(280,250,250)"/>
    <line class="tick" x1="250" y1="58" x2="250" y2="50" transform="rotate(285,250,250)"/>
    <line class="tick" x1="250" y1="58" x2="250" y2="50" transform="rotate(290,250,250)"/>
    <line class="tick" x1="250" y1="58" x2="250" y2="50" transform="rotate(295,250,250)"/>
    <line class="tick" x1="250" y1="58" x2="250" y2="50" transform="rotate(300,250,250)"/>
    <line class="tick" x1="250" y1="58" x2="250" y2="50" transform="rotate(305,250,250)"/>
    <line class="tick" x1="250" y1="58" x2="250" y2="50" transform="rotate(310,250,250)"/>
    <line class="tick" x1="250" y1="58" x2="250" y2="50" transform="rotate(315,250,250)"/>
    <line class="tick" x1="250" y1="58" x2="250" y2="50" transform="rotate(320,250,250)"/>
    <line class="tick" x1="250" y1="58" x2="250" y2="50" transform="rotate(325,250,250)"/>
    <line class="tick" x1="250" y1="58" x2="250" y2="50" transform="rotate(330,250,250)"/>
    <line class="tick" x1="250" y1="58" x2="250" y2="50" transform="rotate(335,250,250)"/>
    <line class="tick" x1="250" y1="58" x2="250" y2="50" transform="rotate(340,250,250)"/>
    <line class="tick" x1="250" y1="58" x2="250" y2="50" transform="rotate(345,250,250)"/>
    <line class="tick" x1="250" y1="58" x2="250" y2="50" transform="rotate(350,250,250)"/>
    <line class="tick" x1="250" y1="58" x2="250" y2="50" transform="rotate(355,250,250)"/>
  </g>

  <!-- Inner decorative rings -->
  <circle class="inner-ring" cx="250" cy="250" r="178" style="stroke-width:1.5;opacity:0.5"/>
  <circle class="inner-ring" cx="250" cy="250" r="170" style="stroke-width:1;opacity:0.4"/>

  <!-- Blue filled center circle -->
  <circle class="circle-fill" cx="250" cy="250" r="162"/>

  <!-- Inner border on blue circle -->
  <circle class="circle-border" cx="250" cy="250" r="162"/>
  <circle cx="250" cy="250" r="155" fill="none" stroke="#4a7a9a" stroke-width="1.5" opacity="0.5"/>

  <!-- Compass rose lines inside blue circle -->
  <!-- Main cross lines -->
  <line class="compass-line-dark" x1="250" y1="90" x2="250" y2="410" opacity="0.3"/>
  <line class="compass-line-dark" x1="90" y1="250" x2="410" y2="250" opacity="0.3"/>
  <!-- Diagonal lines -->
  <line class="compass-line" x1="135" y1="135" x2="365" y2="365" opacity="0.2"/>
  <line class="compass-line" x1="365" y1="135" x2="135" y2="365" opacity="0.2"/>

  <!-- Stars (upper left area of circle) -->
  <!-- Star 1 (larger) -->
  <polygon class="star" points="193,148 196,158 206,158 198,164 201,174 193,168 185,174 188,164 180,158 190,158" transform="scale(0.75) translate(68,62)"/>
  <!-- Star 2 (smaller, 4-pointed) -->
  <polygon class="star" points="222,136 223.5,141 228,142.5 223.5,144 222,149 220.5,144 216,142.5 220.5,141" opacity="0.85"/>
  <!-- Star 3 (tiny) -->
  <polygon class="star" points="240,130 241,133 244,134 241,135 240,138 239,135 236,134 239,133" opacity="0.7"/>

  <!-- Horizontal line accent below EST.2025 -->
  <line x1="185" y1="295" x2="315" y2="295" stroke="#a0b8c8" stroke-width="1.5" opacity="0.7"/>
  <!-- Small decorative line above CEDS -->
  <line x1="210" y1="205" x2="290" y2="205" stroke="#a0b8c8" stroke-width="1" opacity="0.5"/>

  <!-- CEDS Main Text -->
  <text class="text-main" x="250" y="280" text-anchor="middle" dominant-baseline="middle">CEDS</text>

  <!-- EST.2025 Text -->
  <text class="text-est" x="250" y="308" text-anchor="middle">EST.2025</text>

  <!-- Decorative dots flanking EST.2025 -->
  <circle cx="178" cy="308" r="2" fill="#a0b8c8" opacity="0.7"/>
  <circle cx="322" cy="308" r="2" fill="#a0b8c8" opacity="0.7"/>
</svg>
